<mxfile host="app.diagrams.net" modified="2024-02-19T13:15:15.311Z" agent="Mozilla/5.0 (Windows NT 10.0; Win64; x64) AppleWebKit/537.36 (KHTML, like Gecko) Chrome/121.0.0.0 Safari/537.36" etag="S2aIjLl9_DoNM-GNSQXr" version="23.1.5" type="github">
  <diagram name="Page-1" id="Ca9cwQfhhlamgZYuRVzW">
    <mxGraphModel dx="4185" dy="2340" grid="1" gridSize="10" guides="1" tooltips="1" connect="1" arrows="1" fold="1" page="1" pageScale="1" pageWidth="4681" pageHeight="3300" math="0" shadow="0">
      <root>
        <mxCell id="0" />
        <mxCell id="1" parent="0" />
        <mxCell id="l6E0q3iR89TS19-Mh2mZ-78" style="edgeStyle=orthogonalEdgeStyle;rounded=0;orthogonalLoop=1;jettySize=auto;html=1;entryX=0;entryY=0.75;entryDx=0;entryDy=0;exitX=0;exitY=0.5;exitDx=0;exitDy=0;" parent="1" source="l6E0q3iR89TS19-Mh2mZ-9" target="l6E0q3iR89TS19-Mh2mZ-74" edge="1">
          <mxGeometry relative="1" as="geometry">
            <mxPoint x="2250" y="1320" as="sourcePoint" />
            <Array as="points">
              <mxPoint x="2260" y="1320" />
              <mxPoint x="2210" y="1320" />
              <mxPoint x="2210" y="2150" />
            </Array>
          </mxGeometry>
        </mxCell>
        <mxCell id="l6E0q3iR89TS19-Mh2mZ-8" value="Продукт" style="swimlane;childLayout=stackLayout;horizontal=1;startSize=50;horizontalStack=0;rounded=1;fontSize=14;fontStyle=0;strokeWidth=2;resizeParent=0;resizeLast=1;shadow=0;dashed=0;align=center;arcSize=4;whiteSpace=wrap;html=1;" parent="1" vertex="1">
          <mxGeometry x="2260" y="1130" width="160" height="280" as="geometry" />
        </mxCell>
        <mxCell id="l6E0q3iR89TS19-Mh2mZ-9" value="+Название (string)&lt;br&gt;+Айди производителя (int)&lt;br&gt;+Айди типа (int)&lt;br&gt;+Айди группы (int)&lt;br&gt;+Айди бренда (int)&lt;br&gt;+Айди продавца (int)&lt;br&gt;+Белки (float)&lt;br&gt;+Жиры (float)&lt;br&gt;+Углеводы (float)&lt;br&gt;+Осталось (int)&lt;br&gt;+Описание (sting)&lt;br&gt;+Условия хранения (string)&lt;br&gt;+Сотав (string)&lt;br&gt;+Цена (float)&lt;br&gt;+Скидка (float)" style="align=left;strokeColor=none;fillColor=none;spacingLeft=4;fontSize=12;verticalAlign=top;resizable=0;rotatable=0;part=1;html=1;" parent="l6E0q3iR89TS19-Mh2mZ-8" vertex="1">
          <mxGeometry y="50" width="160" height="230" as="geometry" />
        </mxCell>
        <mxCell id="l6E0q3iR89TS19-Mh2mZ-12" value="Отзыв" style="swimlane;childLayout=stackLayout;horizontal=1;startSize=50;horizontalStack=0;rounded=1;fontSize=14;fontStyle=0;strokeWidth=2;resizeParent=0;resizeLast=1;shadow=0;dashed=0;align=center;arcSize=4;whiteSpace=wrap;html=1;" parent="1" vertex="1">
          <mxGeometry x="2660" y="1240" width="180" height="190" as="geometry" />
        </mxCell>
        <mxCell id="l6E0q3iR89TS19-Mh2mZ-13" value="+Айди пользователя (int)&lt;br&gt;+Рейтинг (int)&lt;br&gt;+Достоинства (string)&lt;br&gt;+Недостатки (string)&lt;br&gt;+Комментарий (string)&lt;br&gt;+Счетчик-полезность (int)&lt;br&gt;+Счетчик-неполезность (int)&lt;br&gt;+Дата создания (datetime)" style="align=left;strokeColor=none;fillColor=none;spacingLeft=4;fontSize=12;verticalAlign=top;resizable=0;rotatable=0;part=1;html=1;" parent="l6E0q3iR89TS19-Mh2mZ-12" vertex="1">
          <mxGeometry y="50" width="180" height="140" as="geometry" />
        </mxCell>
        <mxCell id="l6E0q3iR89TS19-Mh2mZ-16" value="Отзыв на продукт" style="swimlane;childLayout=stackLayout;horizontal=1;startSize=50;horizontalStack=0;rounded=1;fontSize=14;fontStyle=0;strokeWidth=2;resizeParent=0;resizeLast=1;shadow=0;dashed=0;align=center;arcSize=4;whiteSpace=wrap;html=1;" parent="1" vertex="1">
          <mxGeometry x="2454" y="1230" width="160" height="120" as="geometry" />
        </mxCell>
        <mxCell id="l6E0q3iR89TS19-Mh2mZ-17" value="+Айди продукта (int)&lt;br&gt;+Айди отзыва (int)&lt;div&gt;&lt;br/&gt;&lt;/div&gt;" style="align=left;strokeColor=none;fillColor=none;spacingLeft=4;fontSize=12;verticalAlign=top;resizable=0;rotatable=0;part=1;html=1;" parent="l6E0q3iR89TS19-Mh2mZ-16" vertex="1">
          <mxGeometry y="50" width="160" height="70" as="geometry" />
        </mxCell>
        <mxCell id="l6E0q3iR89TS19-Mh2mZ-22" style="edgeStyle=orthogonalEdgeStyle;rounded=0;orthogonalLoop=1;jettySize=auto;html=1;exitX=0;exitY=0.25;exitDx=0;exitDy=0;entryX=1;entryY=0.25;entryDx=0;entryDy=0;" parent="1" source="l6E0q3iR89TS19-Mh2mZ-17" target="l6E0q3iR89TS19-Mh2mZ-9" edge="1">
          <mxGeometry relative="1" as="geometry" />
        </mxCell>
        <mxCell id="l6E0q3iR89TS19-Mh2mZ-23" style="edgeStyle=orthogonalEdgeStyle;rounded=0;orthogonalLoop=1;jettySize=auto;html=1;exitX=1;exitY=0.5;exitDx=0;exitDy=0;entryX=0;entryY=0.5;entryDx=0;entryDy=0;" parent="1" source="l6E0q3iR89TS19-Mh2mZ-17" target="l6E0q3iR89TS19-Mh2mZ-13" edge="1">
          <mxGeometry relative="1" as="geometry" />
        </mxCell>
        <mxCell id="l6E0q3iR89TS19-Mh2mZ-26" style="edgeStyle=orthogonalEdgeStyle;rounded=0;orthogonalLoop=1;jettySize=auto;html=1;entryX=1;entryY=0.5;entryDx=0;entryDy=0;" parent="1" source="l6E0q3iR89TS19-Mh2mZ-24" target="l6E0q3iR89TS19-Mh2mZ-13" edge="1">
          <mxGeometry relative="1" as="geometry" />
        </mxCell>
        <mxCell id="l6E0q3iR89TS19-Mh2mZ-24" value="Ответ на отзыв" style="swimlane;childLayout=stackLayout;horizontal=1;startSize=50;horizontalStack=0;rounded=1;fontSize=14;fontStyle=0;strokeWidth=2;resizeParent=0;resizeLast=1;shadow=0;dashed=0;align=center;arcSize=4;whiteSpace=wrap;html=1;" parent="1" vertex="1">
          <mxGeometry x="2920" y="1240" width="160" height="120" as="geometry" />
        </mxCell>
        <mxCell id="l6E0q3iR89TS19-Mh2mZ-25" value="+Айди отзыва (int)&lt;br&gt;+Айди ответа (int)" style="align=left;strokeColor=none;fillColor=none;spacingLeft=4;fontSize=12;verticalAlign=top;resizable=0;rotatable=0;part=1;html=1;" parent="l6E0q3iR89TS19-Mh2mZ-24" vertex="1">
          <mxGeometry y="50" width="160" height="70" as="geometry" />
        </mxCell>
        <mxCell id="l6E0q3iR89TS19-Mh2mZ-27" value="Ответ" style="swimlane;childLayout=stackLayout;horizontal=1;startSize=50;horizontalStack=0;rounded=1;fontSize=14;fontStyle=0;strokeWidth=2;resizeParent=0;resizeLast=1;shadow=0;dashed=0;align=center;arcSize=4;whiteSpace=wrap;html=1;" parent="1" vertex="1">
          <mxGeometry x="3120" y="1330" width="180" height="120" as="geometry" />
        </mxCell>
        <mxCell id="l6E0q3iR89TS19-Mh2mZ-28" value="+Айди пользователя (int)&lt;br&gt;+Содержание (string)&lt;br&gt;+Счетчик-полезность (int)&lt;br style=&quot;border-color: var(--border-color);&quot;&gt;+Счетчик-неполезность (int)" style="align=left;strokeColor=none;fillColor=none;spacingLeft=4;fontSize=12;verticalAlign=top;resizable=0;rotatable=0;part=1;html=1;" parent="l6E0q3iR89TS19-Mh2mZ-27" vertex="1">
          <mxGeometry y="50" width="180" height="70" as="geometry" />
        </mxCell>
        <mxCell id="l6E0q3iR89TS19-Mh2mZ-29" style="edgeStyle=orthogonalEdgeStyle;rounded=0;orthogonalLoop=1;jettySize=auto;html=1;exitX=1;exitY=0;exitDx=0;exitDy=0;entryX=0;entryY=0.25;entryDx=0;entryDy=0;" parent="1" source="l6E0q3iR89TS19-Mh2mZ-25" target="l6E0q3iR89TS19-Mh2mZ-28" edge="1">
          <mxGeometry relative="1" as="geometry" />
        </mxCell>
        <mxCell id="l6E0q3iR89TS19-Mh2mZ-37" style="edgeStyle=orthogonalEdgeStyle;rounded=0;orthogonalLoop=1;jettySize=auto;html=1;exitX=0.5;exitY=0;exitDx=0;exitDy=0;entryX=0.5;entryY=1;entryDx=0;entryDy=0;" parent="1" source="l6E0q3iR89TS19-Mh2mZ-35" target="l6E0q3iR89TS19-Mh2mZ-9" edge="1">
          <mxGeometry relative="1" as="geometry" />
        </mxCell>
        <mxCell id="l6E0q3iR89TS19-Mh2mZ-35" value="Галерея продукта" style="swimlane;childLayout=stackLayout;horizontal=1;startSize=50;horizontalStack=0;rounded=1;fontSize=14;fontStyle=0;strokeWidth=2;resizeParent=0;resizeLast=1;shadow=0;dashed=0;align=center;arcSize=4;whiteSpace=wrap;html=1;" parent="1" vertex="1">
          <mxGeometry x="2270" y="1520" width="210" height="120" as="geometry" />
        </mxCell>
        <mxCell id="l6E0q3iR89TS19-Mh2mZ-36" value="+Айди продукта (int)&lt;br&gt;+Приоритет (int)&lt;br&gt;+Ссылка на медиа-файл (string)" style="align=left;strokeColor=none;fillColor=none;spacingLeft=4;fontSize=12;verticalAlign=top;resizable=0;rotatable=0;part=1;html=1;" parent="l6E0q3iR89TS19-Mh2mZ-35" vertex="1">
          <mxGeometry y="50" width="210" height="70" as="geometry" />
        </mxCell>
        <mxCell id="l6E0q3iR89TS19-Mh2mZ-39" value="Галерея отзыва" style="swimlane;childLayout=stackLayout;horizontal=1;startSize=50;horizontalStack=0;rounded=1;fontSize=14;fontStyle=0;strokeWidth=2;resizeParent=0;resizeLast=1;shadow=0;dashed=0;align=center;arcSize=4;whiteSpace=wrap;html=1;" parent="1" vertex="1">
          <mxGeometry x="3010" y="1500" width="210" height="120" as="geometry" />
        </mxCell>
        <mxCell id="l6E0q3iR89TS19-Mh2mZ-40" value="+Айди отзыва(int)&lt;br&gt;+Приоритет (int)&lt;br&gt;+Ссылка на медиа-файл (string)" style="align=left;strokeColor=none;fillColor=none;spacingLeft=4;fontSize=12;verticalAlign=top;resizable=0;rotatable=0;part=1;html=1;" parent="l6E0q3iR89TS19-Mh2mZ-39" vertex="1">
          <mxGeometry y="50" width="210" height="70" as="geometry" />
        </mxCell>
        <mxCell id="l6E0q3iR89TS19-Mh2mZ-44" style="edgeStyle=orthogonalEdgeStyle;rounded=0;orthogonalLoop=1;jettySize=auto;html=1;entryX=1;entryY=1;entryDx=0;entryDy=0;" parent="1" source="l6E0q3iR89TS19-Mh2mZ-42" target="l6E0q3iR89TS19-Mh2mZ-9" edge="1">
          <mxGeometry relative="1" as="geometry" />
        </mxCell>
        <mxCell id="l6E0q3iR89TS19-Mh2mZ-42" value="Вопросы по продукту" style="swimlane;childLayout=stackLayout;horizontal=1;startSize=50;horizontalStack=0;rounded=1;fontSize=14;fontStyle=0;strokeWidth=2;resizeParent=0;resizeLast=1;shadow=0;dashed=0;align=center;arcSize=4;whiteSpace=wrap;html=1;" parent="1" vertex="1">
          <mxGeometry x="2454" y="1390" width="160" height="120" as="geometry" />
        </mxCell>
        <mxCell id="l6E0q3iR89TS19-Mh2mZ-43" value="+Айди продукта (int)&lt;br style=&quot;border-color: var(--border-color);&quot;&gt;+Айди вопроса (int)" style="align=left;strokeColor=none;fillColor=none;spacingLeft=4;fontSize=12;verticalAlign=top;resizable=0;rotatable=0;part=1;html=1;" parent="l6E0q3iR89TS19-Mh2mZ-42" vertex="1">
          <mxGeometry y="50" width="160" height="70" as="geometry" />
        </mxCell>
        <mxCell id="l6E0q3iR89TS19-Mh2mZ-47" style="edgeStyle=orthogonalEdgeStyle;rounded=0;orthogonalLoop=1;jettySize=auto;html=1;entryX=1;entryY=0.5;entryDx=0;entryDy=0;" parent="1" source="l6E0q3iR89TS19-Mh2mZ-45" target="l6E0q3iR89TS19-Mh2mZ-42" edge="1">
          <mxGeometry relative="1" as="geometry" />
        </mxCell>
        <mxCell id="l6E0q3iR89TS19-Mh2mZ-45" value="Вопрос" style="swimlane;childLayout=stackLayout;horizontal=1;startSize=50;horizontalStack=0;rounded=1;fontSize=14;fontStyle=0;strokeWidth=2;resizeParent=0;resizeLast=1;shadow=0;dashed=0;align=center;arcSize=4;whiteSpace=wrap;html=1;" parent="1" vertex="1">
          <mxGeometry x="2690" y="1485" width="180" height="115" as="geometry" />
        </mxCell>
        <mxCell id="l6E0q3iR89TS19-Mh2mZ-46" value="+Айди пользователя (int)&lt;br&gt;+Счетчик-полезность (int)&lt;br&gt;+Дата создания (datetime)" style="align=left;strokeColor=none;fillColor=none;spacingLeft=4;fontSize=12;verticalAlign=top;resizable=0;rotatable=0;part=1;html=1;" parent="l6E0q3iR89TS19-Mh2mZ-45" vertex="1">
          <mxGeometry y="50" width="180" height="65" as="geometry" />
        </mxCell>
        <mxCell id="l6E0q3iR89TS19-Mh2mZ-66" style="edgeStyle=orthogonalEdgeStyle;rounded=0;orthogonalLoop=1;jettySize=auto;html=1;exitX=0.5;exitY=0;exitDx=0;exitDy=0;entryX=0.5;entryY=1;entryDx=0;entryDy=0;" parent="1" source="l6E0q3iR89TS19-Mh2mZ-56" target="l6E0q3iR89TS19-Mh2mZ-46" edge="1">
          <mxGeometry relative="1" as="geometry" />
        </mxCell>
        <mxCell id="l6E0q3iR89TS19-Mh2mZ-56" value="Ответ на вопрос" style="swimlane;childLayout=stackLayout;horizontal=1;startSize=50;horizontalStack=0;rounded=1;fontSize=14;fontStyle=0;strokeWidth=2;resizeParent=0;resizeLast=1;shadow=0;dashed=0;align=center;arcSize=4;whiteSpace=wrap;html=1;" parent="1" vertex="1">
          <mxGeometry x="2730" y="1660" width="160" height="120" as="geometry" />
        </mxCell>
        <mxCell id="l6E0q3iR89TS19-Mh2mZ-57" value="+Айди Вопроса (int)&lt;br&gt;+Айди ответа (int)" style="align=left;strokeColor=none;fillColor=none;spacingLeft=4;fontSize=12;verticalAlign=top;resizable=0;rotatable=0;part=1;html=1;" parent="l6E0q3iR89TS19-Mh2mZ-56" vertex="1">
          <mxGeometry y="50" width="160" height="70" as="geometry" />
        </mxCell>
        <mxCell id="l6E0q3iR89TS19-Mh2mZ-58" value="Ответ" style="swimlane;childLayout=stackLayout;horizontal=1;startSize=50;horizontalStack=0;rounded=1;fontSize=14;fontStyle=0;strokeWidth=2;resizeParent=0;resizeLast=1;shadow=0;dashed=0;align=center;arcSize=4;whiteSpace=wrap;html=1;" parent="1" vertex="1">
          <mxGeometry x="2930" y="1750" width="190" height="120" as="geometry" />
        </mxCell>
        <mxCell id="l6E0q3iR89TS19-Mh2mZ-59" value="+Айди пользователя (int)&lt;br&gt;+Содержание (string)&lt;br&gt;+Счетчик-полезность (int)&lt;br style=&quot;border-color: var(--border-color);&quot;&gt;+Счетчик-неполезность (int)" style="align=left;strokeColor=none;fillColor=none;spacingLeft=4;fontSize=12;verticalAlign=top;resizable=0;rotatable=0;part=1;html=1;" parent="l6E0q3iR89TS19-Mh2mZ-58" vertex="1">
          <mxGeometry y="50" width="190" height="70" as="geometry" />
        </mxCell>
        <mxCell id="l6E0q3iR89TS19-Mh2mZ-60" style="edgeStyle=orthogonalEdgeStyle;rounded=0;orthogonalLoop=1;jettySize=auto;html=1;exitX=1;exitY=0;exitDx=0;exitDy=0;entryX=0;entryY=0.25;entryDx=0;entryDy=0;" parent="1" source="l6E0q3iR89TS19-Mh2mZ-57" target="l6E0q3iR89TS19-Mh2mZ-59" edge="1">
          <mxGeometry relative="1" as="geometry" />
        </mxCell>
        <mxCell id="l6E0q3iR89TS19-Mh2mZ-64" style="edgeStyle=orthogonalEdgeStyle;rounded=0;orthogonalLoop=1;jettySize=auto;html=1;entryX=1.017;entryY=0.693;entryDx=0;entryDy=0;entryPerimeter=0;" parent="1" source="l6E0q3iR89TS19-Mh2mZ-39" target="l6E0q3iR89TS19-Mh2mZ-13" edge="1">
          <mxGeometry relative="1" as="geometry">
            <Array as="points">
              <mxPoint x="3030" y="1440" />
              <mxPoint x="2880" y="1440" />
              <mxPoint x="2880" y="1387" />
            </Array>
          </mxGeometry>
        </mxCell>
        <mxCell id="l6E0q3iR89TS19-Mh2mZ-67" value="Тэг продукта" style="swimlane;childLayout=stackLayout;horizontal=1;startSize=50;horizontalStack=0;rounded=1;fontSize=14;fontStyle=0;strokeWidth=2;resizeParent=0;resizeLast=1;shadow=0;dashed=0;align=center;arcSize=4;whiteSpace=wrap;html=1;" parent="1" vertex="1">
          <mxGeometry x="2270" y="1680" width="160" height="120" as="geometry" />
        </mxCell>
        <mxCell id="l6E0q3iR89TS19-Mh2mZ-68" value="+Айди продукта (int)&lt;br&gt;+Айди тэга (int)" style="align=left;strokeColor=none;fillColor=none;spacingLeft=4;fontSize=12;verticalAlign=top;resizable=0;rotatable=0;part=1;html=1;" parent="l6E0q3iR89TS19-Mh2mZ-67" vertex="1">
          <mxGeometry y="50" width="160" height="70" as="geometry" />
        </mxCell>
        <mxCell id="l6E0q3iR89TS19-Mh2mZ-69" style="edgeStyle=orthogonalEdgeStyle;rounded=0;orthogonalLoop=1;jettySize=auto;html=1;exitX=0;exitY=0.25;exitDx=0;exitDy=0;entryX=-0.015;entryY=0.852;entryDx=0;entryDy=0;entryPerimeter=0;" parent="1" source="l6E0q3iR89TS19-Mh2mZ-68" target="l6E0q3iR89TS19-Mh2mZ-9" edge="1">
          <mxGeometry relative="1" as="geometry">
            <mxPoint x="2250" y="1380" as="targetPoint" />
            <Array as="points">
              <mxPoint x="2230" y="1748" />
              <mxPoint x="2230" y="1340" />
            </Array>
          </mxGeometry>
        </mxCell>
        <mxCell id="l6E0q3iR89TS19-Mh2mZ-71" value="Тэг" style="swimlane;childLayout=stackLayout;horizontal=1;startSize=50;horizontalStack=0;rounded=1;fontSize=14;fontStyle=0;strokeWidth=2;resizeParent=0;resizeLast=1;shadow=0;dashed=0;align=center;arcSize=4;whiteSpace=wrap;html=1;" parent="1" vertex="1">
          <mxGeometry x="2270" y="1890" width="160" height="120" as="geometry" />
        </mxCell>
        <mxCell id="l6E0q3iR89TS19-Mh2mZ-72" value="+Название (string)&lt;br&gt;+Описание (string)&lt;br&gt;+Изображение (string)" style="align=left;strokeColor=none;fillColor=none;spacingLeft=4;fontSize=12;verticalAlign=top;resizable=0;rotatable=0;part=1;html=1;" parent="l6E0q3iR89TS19-Mh2mZ-71" vertex="1">
          <mxGeometry y="50" width="160" height="70" as="geometry" />
        </mxCell>
        <mxCell id="l6E0q3iR89TS19-Mh2mZ-73" style="edgeStyle=orthogonalEdgeStyle;rounded=0;orthogonalLoop=1;jettySize=auto;html=1;exitX=0;exitY=0.25;exitDx=0;exitDy=0;entryX=0;entryY=0.75;entryDx=0;entryDy=0;" parent="1" source="l6E0q3iR89TS19-Mh2mZ-72" target="l6E0q3iR89TS19-Mh2mZ-67" edge="1">
          <mxGeometry relative="1" as="geometry" />
        </mxCell>
        <mxCell id="l6E0q3iR89TS19-Mh2mZ-74" value="Производитель" style="swimlane;childLayout=stackLayout;horizontal=1;startSize=50;horizontalStack=0;rounded=1;fontSize=14;fontStyle=0;strokeWidth=2;resizeParent=0;resizeLast=1;shadow=0;dashed=0;align=center;arcSize=4;whiteSpace=wrap;html=1;" parent="1" vertex="1">
          <mxGeometry x="2270" y="2060" width="160" height="120" as="geometry" />
        </mxCell>
        <mxCell id="l6E0q3iR89TS19-Mh2mZ-75" value="+Название (string)" style="align=left;strokeColor=none;fillColor=none;spacingLeft=4;fontSize=12;verticalAlign=top;resizable=0;rotatable=0;part=1;html=1;" parent="l6E0q3iR89TS19-Mh2mZ-74" vertex="1">
          <mxGeometry y="50" width="160" height="70" as="geometry" />
        </mxCell>
        <mxCell id="l6E0q3iR89TS19-Mh2mZ-80" value="Тип" style="swimlane;childLayout=stackLayout;horizontal=1;startSize=50;horizontalStack=0;rounded=1;fontSize=14;fontStyle=0;strokeWidth=2;resizeParent=0;resizeLast=1;shadow=0;dashed=0;align=center;arcSize=4;whiteSpace=wrap;html=1;" parent="1" vertex="1">
          <mxGeometry x="2270" y="2230" width="160" height="120" as="geometry" />
        </mxCell>
        <mxCell id="l6E0q3iR89TS19-Mh2mZ-81" value="+Название (string)" style="align=left;strokeColor=none;fillColor=none;spacingLeft=4;fontSize=12;verticalAlign=top;resizable=0;rotatable=0;part=1;html=1;" parent="l6E0q3iR89TS19-Mh2mZ-80" vertex="1">
          <mxGeometry y="50" width="160" height="70" as="geometry" />
        </mxCell>
        <mxCell id="l6E0q3iR89TS19-Mh2mZ-82" style="edgeStyle=orthogonalEdgeStyle;rounded=0;orthogonalLoop=1;jettySize=auto;html=1;exitX=0;exitY=0.25;exitDx=0;exitDy=0;entryX=0;entryY=0.25;entryDx=0;entryDy=0;" parent="1" source="l6E0q3iR89TS19-Mh2mZ-9" target="l6E0q3iR89TS19-Mh2mZ-80" edge="1">
          <mxGeometry relative="1" as="geometry">
            <Array as="points">
              <mxPoint x="2180" y="1298" />
              <mxPoint x="2180" y="2260" />
            </Array>
          </mxGeometry>
        </mxCell>
        <mxCell id="l6E0q3iR89TS19-Mh2mZ-83" value="Аттрибут типа" style="swimlane;childLayout=stackLayout;horizontal=1;startSize=50;horizontalStack=0;rounded=1;fontSize=14;fontStyle=0;strokeWidth=2;resizeParent=0;resizeLast=1;shadow=0;dashed=0;align=center;arcSize=4;whiteSpace=wrap;html=1;" parent="1" vertex="1">
          <mxGeometry x="2510" y="2230" width="160" height="120" as="geometry" />
        </mxCell>
        <mxCell id="l6E0q3iR89TS19-Mh2mZ-84" value="+Айди типа (int)&lt;br&gt;+Айди аттрибута (int)" style="align=left;strokeColor=none;fillColor=none;spacingLeft=4;fontSize=12;verticalAlign=top;resizable=0;rotatable=0;part=1;html=1;" parent="l6E0q3iR89TS19-Mh2mZ-83" vertex="1">
          <mxGeometry y="50" width="160" height="70" as="geometry" />
        </mxCell>
        <mxCell id="l6E0q3iR89TS19-Mh2mZ-85" style="edgeStyle=orthogonalEdgeStyle;rounded=0;orthogonalLoop=1;jettySize=auto;html=1;exitX=0;exitY=0.25;exitDx=0;exitDy=0;entryX=1;entryY=0.25;entryDx=0;entryDy=0;" parent="1" source="l6E0q3iR89TS19-Mh2mZ-84" target="l6E0q3iR89TS19-Mh2mZ-81" edge="1">
          <mxGeometry relative="1" as="geometry" />
        </mxCell>
        <mxCell id="l6E0q3iR89TS19-Mh2mZ-86" value="Аттрибут" style="swimlane;childLayout=stackLayout;horizontal=1;startSize=50;horizontalStack=0;rounded=1;fontSize=14;fontStyle=0;strokeWidth=2;resizeParent=0;resizeLast=1;shadow=0;dashed=0;align=center;arcSize=4;whiteSpace=wrap;html=1;" parent="1" vertex="1">
          <mxGeometry x="2730" y="2230" width="160" height="120" as="geometry" />
        </mxCell>
        <mxCell id="l6E0q3iR89TS19-Mh2mZ-87" value="+Название (string)" style="align=left;strokeColor=none;fillColor=none;spacingLeft=4;fontSize=12;verticalAlign=top;resizable=0;rotatable=0;part=1;html=1;" parent="l6E0q3iR89TS19-Mh2mZ-86" vertex="1">
          <mxGeometry y="50" width="160" height="70" as="geometry" />
        </mxCell>
        <mxCell id="l6E0q3iR89TS19-Mh2mZ-89" style="edgeStyle=orthogonalEdgeStyle;rounded=0;orthogonalLoop=1;jettySize=auto;html=1;exitX=1;exitY=0.25;exitDx=0;exitDy=0;entryX=0;entryY=0.25;entryDx=0;entryDy=0;" parent="1" source="l6E0q3iR89TS19-Mh2mZ-84" target="l6E0q3iR89TS19-Mh2mZ-87" edge="1">
          <mxGeometry relative="1" as="geometry" />
        </mxCell>
        <mxCell id="l6E0q3iR89TS19-Mh2mZ-90" value="Бренд" style="swimlane;childLayout=stackLayout;horizontal=1;startSize=50;horizontalStack=0;rounded=1;fontSize=14;fontStyle=0;strokeWidth=2;resizeParent=0;resizeLast=1;shadow=0;dashed=0;align=center;arcSize=4;whiteSpace=wrap;html=1;" parent="1" vertex="1">
          <mxGeometry x="2270" y="2410" width="160" height="120" as="geometry" />
        </mxCell>
        <mxCell id="l6E0q3iR89TS19-Mh2mZ-91" value="+Название (stirng)" style="align=left;strokeColor=none;fillColor=none;spacingLeft=4;fontSize=12;verticalAlign=top;resizable=0;rotatable=0;part=1;html=1;" parent="l6E0q3iR89TS19-Mh2mZ-90" vertex="1">
          <mxGeometry y="50" width="160" height="70" as="geometry" />
        </mxCell>
        <mxCell id="l6E0q3iR89TS19-Mh2mZ-92" style="edgeStyle=orthogonalEdgeStyle;rounded=0;orthogonalLoop=1;jettySize=auto;html=1;exitX=0;exitY=0;exitDx=0;exitDy=0;entryX=0;entryY=0.25;entryDx=0;entryDy=0;" parent="1" source="l6E0q3iR89TS19-Mh2mZ-9" target="l6E0q3iR89TS19-Mh2mZ-91" edge="1">
          <mxGeometry relative="1" as="geometry">
            <Array as="points">
              <mxPoint x="2140" y="1280" />
              <mxPoint x="2140" y="2478" />
            </Array>
          </mxGeometry>
        </mxCell>
        <mxCell id="l6E0q3iR89TS19-Mh2mZ-111" style="edgeStyle=orthogonalEdgeStyle;rounded=0;orthogonalLoop=1;jettySize=auto;html=1;exitX=0.5;exitY=0;exitDx=0;exitDy=0;" parent="1" source="l6E0q3iR89TS19-Mh2mZ-97" edge="1">
          <mxGeometry relative="1" as="geometry">
            <mxPoint x="2260" y="1260" as="targetPoint" />
            <Array as="points">
              <mxPoint x="1940" y="1260" />
            </Array>
          </mxGeometry>
        </mxCell>
        <mxCell id="l6E0q3iR89TS19-Mh2mZ-97" value="Значение аттрибута продукта" style="swimlane;childLayout=stackLayout;horizontal=1;startSize=50;horizontalStack=0;rounded=1;fontSize=14;fontStyle=0;strokeWidth=2;resizeParent=0;resizeLast=1;shadow=0;dashed=0;align=center;arcSize=4;whiteSpace=wrap;html=1;" parent="1" vertex="1">
          <mxGeometry x="1860" y="1300" width="160" height="120" as="geometry" />
        </mxCell>
        <mxCell id="l6E0q3iR89TS19-Mh2mZ-98" value="+Айди продукта (int)&lt;br&gt;+Айди аттрибута (int)&lt;br&gt;+Тип из правила (int)&lt;br&gt;+Значение аттрибута (int)" style="align=left;strokeColor=none;fillColor=none;spacingLeft=4;fontSize=12;verticalAlign=top;resizable=0;rotatable=0;part=1;html=1;" parent="l6E0q3iR89TS19-Mh2mZ-97" vertex="1">
          <mxGeometry y="50" width="160" height="70" as="geometry" />
        </mxCell>
        <mxCell id="l6E0q3iR89TS19-Mh2mZ-99" value="Правило заполнения аттрибута" style="swimlane;childLayout=stackLayout;horizontal=1;startSize=50;horizontalStack=0;rounded=1;fontSize=14;fontStyle=0;strokeWidth=2;resizeParent=0;resizeLast=1;shadow=0;dashed=0;align=center;arcSize=4;whiteSpace=wrap;html=1;" parent="1" vertex="1">
          <mxGeometry x="2960" y="2230" width="160" height="120" as="geometry" />
        </mxCell>
        <mxCell id="l6E0q3iR89TS19-Mh2mZ-100" value="+Айди аттрибута (int)&lt;br&gt;+Айди правила (int)" style="align=left;strokeColor=none;fillColor=none;spacingLeft=4;fontSize=12;verticalAlign=top;resizable=0;rotatable=0;part=1;html=1;" parent="l6E0q3iR89TS19-Mh2mZ-99" vertex="1">
          <mxGeometry y="50" width="160" height="70" as="geometry" />
        </mxCell>
        <mxCell id="l6E0q3iR89TS19-Mh2mZ-101" style="edgeStyle=orthogonalEdgeStyle;rounded=0;orthogonalLoop=1;jettySize=auto;html=1;exitX=0;exitY=0.25;exitDx=0;exitDy=0;entryX=1;entryY=0.25;entryDx=0;entryDy=0;" parent="1" source="l6E0q3iR89TS19-Mh2mZ-100" target="l6E0q3iR89TS19-Mh2mZ-87" edge="1">
          <mxGeometry relative="1" as="geometry" />
        </mxCell>
        <mxCell id="l6E0q3iR89TS19-Mh2mZ-102" value="Правило" style="swimlane;childLayout=stackLayout;horizontal=1;startSize=50;horizontalStack=0;rounded=1;fontSize=14;fontStyle=0;strokeWidth=2;resizeParent=0;resizeLast=1;shadow=0;dashed=0;align=center;arcSize=4;whiteSpace=wrap;html=1;" parent="1" vertex="1">
          <mxGeometry x="3210" y="2240" width="230" height="80" as="geometry" />
        </mxCell>
        <mxCell id="l6E0q3iR89TS19-Mh2mZ-103" value="+ Тип (string) [сущность/строка/число]" style="align=left;strokeColor=none;fillColor=none;spacingLeft=4;fontSize=12;verticalAlign=top;resizable=0;rotatable=0;part=1;html=1;" parent="l6E0q3iR89TS19-Mh2mZ-102" vertex="1">
          <mxGeometry y="50" width="230" height="30" as="geometry" />
        </mxCell>
        <mxCell id="l6E0q3iR89TS19-Mh2mZ-105" style="edgeStyle=orthogonalEdgeStyle;rounded=0;orthogonalLoop=1;jettySize=auto;html=1;exitX=1;exitY=0.25;exitDx=0;exitDy=0;entryX=0;entryY=0.5;entryDx=0;entryDy=0;" parent="1" source="l6E0q3iR89TS19-Mh2mZ-100" target="l6E0q3iR89TS19-Mh2mZ-102" edge="1">
          <mxGeometry relative="1" as="geometry" />
        </mxCell>
        <mxCell id="UIaeC_ITgRNFzFBEgnwc-5" value="Группа продукта" style="swimlane;childLayout=stackLayout;horizontal=1;startSize=50;horizontalStack=0;rounded=1;fontSize=14;fontStyle=0;strokeWidth=2;resizeParent=0;resizeLast=1;shadow=0;dashed=0;align=center;arcSize=4;whiteSpace=wrap;html=1;" vertex="1" parent="1">
          <mxGeometry x="2260" y="840" width="160" height="90" as="geometry" />
        </mxCell>
        <mxCell id="UIaeC_ITgRNFzFBEgnwc-6" value="+Айди продукта (int)&lt;br&gt;+Айди группы (int)" style="align=left;strokeColor=none;fillColor=none;spacingLeft=4;fontSize=12;verticalAlign=top;resizable=0;rotatable=0;part=1;html=1;" vertex="1" parent="UIaeC_ITgRNFzFBEgnwc-5">
          <mxGeometry y="50" width="160" height="40" as="geometry" />
        </mxCell>
        <mxCell id="UIaeC_ITgRNFzFBEgnwc-8" style="edgeStyle=orthogonalEdgeStyle;rounded=0;orthogonalLoop=1;jettySize=auto;html=1;" edge="1" parent="1" source="UIaeC_ITgRNFzFBEgnwc-6" target="l6E0q3iR89TS19-Mh2mZ-8">
          <mxGeometry relative="1" as="geometry" />
        </mxCell>
        <mxCell id="UIaeC_ITgRNFzFBEgnwc-9" value="Группа" style="swimlane;childLayout=stackLayout;horizontal=1;startSize=50;horizontalStack=0;rounded=1;fontSize=14;fontStyle=0;strokeWidth=2;resizeParent=0;resizeLast=1;shadow=0;dashed=0;align=center;arcSize=4;whiteSpace=wrap;html=1;" vertex="1" parent="1">
          <mxGeometry x="2030" y="1000" width="160" height="80" as="geometry" />
        </mxCell>
        <mxCell id="UIaeC_ITgRNFzFBEgnwc-10" value="+Название (string)" style="align=left;strokeColor=none;fillColor=none;spacingLeft=4;fontSize=12;verticalAlign=top;resizable=0;rotatable=0;part=1;html=1;" vertex="1" parent="UIaeC_ITgRNFzFBEgnwc-9">
          <mxGeometry y="50" width="160" height="30" as="geometry" />
        </mxCell>
        <mxCell id="UIaeC_ITgRNFzFBEgnwc-11" style="edgeStyle=orthogonalEdgeStyle;rounded=0;orthogonalLoop=1;jettySize=auto;html=1;entryX=1;entryY=0.5;entryDx=0;entryDy=0;" edge="1" parent="1" source="UIaeC_ITgRNFzFBEgnwc-6" target="UIaeC_ITgRNFzFBEgnwc-10">
          <mxGeometry relative="1" as="geometry" />
        </mxCell>
        <mxCell id="UIaeC_ITgRNFzFBEgnwc-13" value="Категория продутка" style="swimlane;childLayout=stackLayout;horizontal=1;startSize=50;horizontalStack=0;rounded=1;fontSize=14;fontStyle=0;strokeWidth=2;resizeParent=0;resizeLast=1;shadow=0;dashed=0;align=center;arcSize=4;whiteSpace=wrap;html=1;" vertex="1" parent="1">
          <mxGeometry x="2500" y="1000" width="240" height="100" as="geometry" />
        </mxCell>
        <mxCell id="UIaeC_ITgRNFzFBEgnwc-14" value="+Название (string)&lt;br&gt;+Айди продукта (int)&lt;br&gt;+Айди роодительской категории (int)" style="align=left;strokeColor=none;fillColor=none;spacingLeft=4;fontSize=12;verticalAlign=top;resizable=0;rotatable=0;part=1;html=1;" vertex="1" parent="UIaeC_ITgRNFzFBEgnwc-13">
          <mxGeometry y="50" width="240" height="50" as="geometry" />
        </mxCell>
        <mxCell id="UIaeC_ITgRNFzFBEgnwc-16" style="edgeStyle=orthogonalEdgeStyle;rounded=0;orthogonalLoop=1;jettySize=auto;html=1;entryX=1.01;entryY=0.13;entryDx=0;entryDy=0;entryPerimeter=0;" edge="1" parent="UIaeC_ITgRNFzFBEgnwc-13" source="UIaeC_ITgRNFzFBEgnwc-14" target="UIaeC_ITgRNFzFBEgnwc-13">
          <mxGeometry relative="1" as="geometry">
            <mxPoint x="270.00000000000045" y="20" as="targetPoint" />
            <Array as="points">
              <mxPoint x="280" y="70" />
              <mxPoint x="280" y="13" />
            </Array>
          </mxGeometry>
        </mxCell>
        <mxCell id="UIaeC_ITgRNFzFBEgnwc-15" style="edgeStyle=orthogonalEdgeStyle;rounded=0;orthogonalLoop=1;jettySize=auto;html=1;entryX=1.003;entryY=0.084;entryDx=0;entryDy=0;entryPerimeter=0;" edge="1" parent="1" source="UIaeC_ITgRNFzFBEgnwc-13" target="l6E0q3iR89TS19-Mh2mZ-9">
          <mxGeometry relative="1" as="geometry" />
        </mxCell>
        <mxCell id="UIaeC_ITgRNFzFBEgnwc-17" value="Продавец" style="swimlane;childLayout=stackLayout;horizontal=1;startSize=50;horizontalStack=0;rounded=1;fontSize=14;fontStyle=0;strokeWidth=2;resizeParent=0;resizeLast=1;shadow=0;dashed=0;align=center;arcSize=4;whiteSpace=wrap;html=1;" vertex="1" parent="1">
          <mxGeometry x="1820" y="1050" width="160" height="90" as="geometry" />
        </mxCell>
        <mxCell id="UIaeC_ITgRNFzFBEgnwc-18" value="+Название (string)" style="align=left;strokeColor=none;fillColor=none;spacingLeft=4;fontSize=12;verticalAlign=top;resizable=0;rotatable=0;part=1;html=1;" vertex="1" parent="UIaeC_ITgRNFzFBEgnwc-17">
          <mxGeometry y="50" width="160" height="40" as="geometry" />
        </mxCell>
        <mxCell id="UIaeC_ITgRNFzFBEgnwc-19" style="edgeStyle=orthogonalEdgeStyle;rounded=0;orthogonalLoop=1;jettySize=auto;html=1;entryX=1;entryY=0;entryDx=0;entryDy=0;" edge="1" parent="1" source="l6E0q3iR89TS19-Mh2mZ-9" target="UIaeC_ITgRNFzFBEgnwc-18">
          <mxGeometry relative="1" as="geometry">
            <Array as="points">
              <mxPoint x="2120" y="1250" />
              <mxPoint x="2120" y="1100" />
            </Array>
          </mxGeometry>
        </mxCell>
        <mxCell id="UIaeC_ITgRNFzFBEgnwc-30" style="edgeStyle=orthogonalEdgeStyle;rounded=0;orthogonalLoop=1;jettySize=auto;html=1;entryX=0;entryY=0.25;entryDx=0;entryDy=0;" edge="1" parent="1" source="UIaeC_ITgRNFzFBEgnwc-20" target="UIaeC_ITgRNFzFBEgnwc-24">
          <mxGeometry relative="1" as="geometry" />
        </mxCell>
        <mxCell id="UIaeC_ITgRNFzFBEgnwc-20" value="Характеристики продукта" style="swimlane;childLayout=stackLayout;horizontal=1;startSize=50;horizontalStack=0;rounded=1;fontSize=14;fontStyle=0;strokeWidth=2;resizeParent=0;resizeLast=1;shadow=0;dashed=0;align=center;arcSize=4;whiteSpace=wrap;html=1;" vertex="1" parent="1">
          <mxGeometry x="2830" y="1000" width="160" height="120" as="geometry" />
        </mxCell>
        <mxCell id="UIaeC_ITgRNFzFBEgnwc-21" value="+Айди продутка (int)&lt;br&gt;+Айди характеристика" style="align=left;strokeColor=none;fillColor=none;spacingLeft=4;fontSize=12;verticalAlign=top;resizable=0;rotatable=0;part=1;html=1;" vertex="1" parent="UIaeC_ITgRNFzFBEgnwc-20">
          <mxGeometry y="50" width="160" height="70" as="geometry" />
        </mxCell>
        <mxCell id="UIaeC_ITgRNFzFBEgnwc-22" style="edgeStyle=orthogonalEdgeStyle;rounded=0;orthogonalLoop=1;jettySize=auto;html=1;entryX=0.995;entryY=0.207;entryDx=0;entryDy=0;entryPerimeter=0;" edge="1" parent="1" source="UIaeC_ITgRNFzFBEgnwc-20" target="l6E0q3iR89TS19-Mh2mZ-9">
          <mxGeometry relative="1" as="geometry">
            <Array as="points">
              <mxPoint x="2910" y="1140" />
              <mxPoint x="2625" y="1140" />
              <mxPoint x="2625" y="1224" />
            </Array>
          </mxGeometry>
        </mxCell>
        <mxCell id="UIaeC_ITgRNFzFBEgnwc-23" value="Характеристика" style="swimlane;childLayout=stackLayout;horizontal=1;startSize=50;horizontalStack=0;rounded=1;fontSize=14;fontStyle=0;strokeWidth=2;resizeParent=0;resizeLast=1;shadow=0;dashed=0;align=center;arcSize=4;whiteSpace=wrap;html=1;" vertex="1" parent="1">
          <mxGeometry x="3080" y="1000" width="160" height="120" as="geometry" />
        </mxCell>
        <mxCell id="UIaeC_ITgRNFzFBEgnwc-24" value="+Название" style="align=left;strokeColor=none;fillColor=none;spacingLeft=4;fontSize=12;verticalAlign=top;resizable=0;rotatable=0;part=1;html=1;" vertex="1" parent="UIaeC_ITgRNFzFBEgnwc-23">
          <mxGeometry y="50" width="160" height="70" as="geometry" />
        </mxCell>
        <mxCell id="UIaeC_ITgRNFzFBEgnwc-31" style="edgeStyle=orthogonalEdgeStyle;rounded=0;orthogonalLoop=1;jettySize=auto;html=1;" edge="1" parent="1" source="UIaeC_ITgRNFzFBEgnwc-25" target="UIaeC_ITgRNFzFBEgnwc-24">
          <mxGeometry relative="1" as="geometry" />
        </mxCell>
        <mxCell id="UIaeC_ITgRNFzFBEgnwc-25" value="Правило заполнения характеристики" style="swimlane;childLayout=stackLayout;horizontal=1;startSize=50;horizontalStack=0;rounded=1;fontSize=14;fontStyle=0;strokeWidth=2;resizeParent=0;resizeLast=1;shadow=0;dashed=0;align=center;arcSize=4;whiteSpace=wrap;html=1;" vertex="1" parent="1">
          <mxGeometry x="3300" y="1010" width="160" height="120" as="geometry" />
        </mxCell>
        <mxCell id="UIaeC_ITgRNFzFBEgnwc-26" value="+Айди характеристики (int)&lt;br&gt;+Айди правила (int)" style="align=left;strokeColor=none;fillColor=none;spacingLeft=4;fontSize=12;verticalAlign=top;resizable=0;rotatable=0;part=1;html=1;" vertex="1" parent="UIaeC_ITgRNFzFBEgnwc-25">
          <mxGeometry y="50" width="160" height="70" as="geometry" />
        </mxCell>
        <mxCell id="UIaeC_ITgRNFzFBEgnwc-27" value="Правило" style="swimlane;childLayout=stackLayout;horizontal=1;startSize=50;horizontalStack=0;rounded=1;fontSize=14;fontStyle=0;strokeWidth=2;resizeParent=0;resizeLast=1;shadow=0;dashed=0;align=center;arcSize=4;whiteSpace=wrap;html=1;" vertex="1" parent="1">
          <mxGeometry x="3550" y="1020" width="230" height="80" as="geometry" />
        </mxCell>
        <mxCell id="UIaeC_ITgRNFzFBEgnwc-28" value="+ Тип (string) [сущность/строка/число]" style="align=left;strokeColor=none;fillColor=none;spacingLeft=4;fontSize=12;verticalAlign=top;resizable=0;rotatable=0;part=1;html=1;" vertex="1" parent="UIaeC_ITgRNFzFBEgnwc-27">
          <mxGeometry y="50" width="230" height="30" as="geometry" />
        </mxCell>
        <mxCell id="UIaeC_ITgRNFzFBEgnwc-29" style="edgeStyle=orthogonalEdgeStyle;rounded=0;orthogonalLoop=1;jettySize=auto;html=1;exitX=1;exitY=0.25;exitDx=0;exitDy=0;entryX=0;entryY=0.5;entryDx=0;entryDy=0;" edge="1" parent="1" source="UIaeC_ITgRNFzFBEgnwc-26" target="UIaeC_ITgRNFzFBEgnwc-27">
          <mxGeometry relative="1" as="geometry" />
        </mxCell>
        <mxCell id="UIaeC_ITgRNFzFBEgnwc-62" style="edgeStyle=orthogonalEdgeStyle;rounded=0;orthogonalLoop=1;jettySize=auto;html=1;exitX=1;exitY=0.25;exitDx=0;exitDy=0;entryX=0;entryY=0.25;entryDx=0;entryDy=0;" edge="1" parent="1" source="UIaeC_ITgRNFzFBEgnwc-32" target="UIaeC_ITgRNFzFBEgnwc-56">
          <mxGeometry relative="1" as="geometry" />
        </mxCell>
        <mxCell id="UIaeC_ITgRNFzFBEgnwc-32" value="Пользователь" style="swimlane;childLayout=stackLayout;horizontal=1;startSize=50;horizontalStack=0;rounded=1;fontSize=14;fontStyle=0;strokeWidth=2;resizeParent=0;resizeLast=1;shadow=0;dashed=0;align=center;arcSize=4;whiteSpace=wrap;html=1;" vertex="1" parent="1">
          <mxGeometry x="2690" y="2010" width="160" height="120" as="geometry" />
        </mxCell>
        <mxCell id="UIaeC_ITgRNFzFBEgnwc-40" value="+ email (string)&lt;br&gt;+ password_hash (string)" style="text;html=1;align=left;verticalAlign=middle;resizable=0;points=[];autosize=1;strokeColor=none;fillColor=none;" vertex="1" parent="UIaeC_ITgRNFzFBEgnwc-32">
          <mxGeometry y="50" width="160" height="70" as="geometry" />
        </mxCell>
        <mxCell id="UIaeC_ITgRNFzFBEgnwc-34" style="edgeStyle=orthogonalEdgeStyle;rounded=0;orthogonalLoop=1;jettySize=auto;html=1;entryX=1;entryY=0.25;entryDx=0;entryDy=0;" edge="1" parent="1" source="l6E0q3iR89TS19-Mh2mZ-46">
          <mxGeometry relative="1" as="geometry">
            <mxPoint x="2850" y="2077.5" as="targetPoint" />
            <Array as="points">
              <mxPoint x="2580" y="1567" />
              <mxPoint x="2580" y="1830" />
              <mxPoint x="2870" y="1830" />
              <mxPoint x="2870" y="2077" />
            </Array>
          </mxGeometry>
        </mxCell>
        <mxCell id="UIaeC_ITgRNFzFBEgnwc-35" style="edgeStyle=orthogonalEdgeStyle;rounded=0;orthogonalLoop=1;jettySize=auto;html=1;entryX=1;entryY=0.75;entryDx=0;entryDy=0;" edge="1" parent="1" source="l6E0q3iR89TS19-Mh2mZ-28">
          <mxGeometry relative="1" as="geometry">
            <mxPoint x="2850" y="2112.5" as="targetPoint" />
            <Array as="points">
              <mxPoint x="3350" y="1415" />
              <mxPoint x="3350" y="2113" />
            </Array>
          </mxGeometry>
        </mxCell>
        <mxCell id="UIaeC_ITgRNFzFBEgnwc-36" value="Контактные данные" style="swimlane;childLayout=stackLayout;horizontal=1;startSize=50;horizontalStack=0;rounded=1;fontSize=14;fontStyle=0;strokeWidth=2;resizeParent=0;resizeLast=1;shadow=0;dashed=0;align=center;arcSize=4;whiteSpace=wrap;html=1;" vertex="1" parent="1">
          <mxGeometry x="2480" y="1890" width="160" height="120" as="geometry" />
        </mxCell>
        <mxCell id="UIaeC_ITgRNFzFBEgnwc-37" value="+Айди пользователя (int)&lt;br&gt;+Имя (string)&lt;br&gt;+Фамилия (string)&lt;br&gt;+Номер телефон (string)" style="align=left;strokeColor=none;fillColor=none;spacingLeft=4;fontSize=12;verticalAlign=top;resizable=0;rotatable=0;part=1;html=1;" vertex="1" parent="UIaeC_ITgRNFzFBEgnwc-36">
          <mxGeometry y="50" width="160" height="70" as="geometry" />
        </mxCell>
        <mxCell id="UIaeC_ITgRNFzFBEgnwc-38" style="edgeStyle=orthogonalEdgeStyle;rounded=0;orthogonalLoop=1;jettySize=auto;html=1;entryX=0.405;entryY=-0.004;entryDx=0;entryDy=0;entryPerimeter=0;" edge="1" parent="1" source="UIaeC_ITgRNFzFBEgnwc-37" target="UIaeC_ITgRNFzFBEgnwc-32">
          <mxGeometry relative="1" as="geometry" />
        </mxCell>
        <mxCell id="UIaeC_ITgRNFzFBEgnwc-41" value="Избранные продукты" style="swimlane;childLayout=stackLayout;horizontal=1;startSize=50;horizontalStack=0;rounded=1;fontSize=14;fontStyle=0;strokeWidth=2;resizeParent=0;resizeLast=1;shadow=0;dashed=0;align=center;arcSize=4;whiteSpace=wrap;html=1;" vertex="1" parent="1">
          <mxGeometry x="3460" y="1980" width="160" height="120" as="geometry" />
        </mxCell>
        <mxCell id="UIaeC_ITgRNFzFBEgnwc-42" value="+Айди пользователя (int)&lt;br&gt;+Айди продукта (int)" style="align=left;strokeColor=none;fillColor=none;spacingLeft=4;fontSize=12;verticalAlign=top;resizable=0;rotatable=0;part=1;html=1;" vertex="1" parent="UIaeC_ITgRNFzFBEgnwc-41">
          <mxGeometry y="50" width="160" height="70" as="geometry" />
        </mxCell>
        <mxCell id="UIaeC_ITgRNFzFBEgnwc-43" style="edgeStyle=orthogonalEdgeStyle;rounded=0;orthogonalLoop=1;jettySize=auto;html=1;entryX=0.588;entryY=1.014;entryDx=0;entryDy=0;entryPerimeter=0;" edge="1" parent="1" source="UIaeC_ITgRNFzFBEgnwc-42" target="UIaeC_ITgRNFzFBEgnwc-40">
          <mxGeometry relative="1" as="geometry">
            <Array as="points">
              <mxPoint x="3540" y="2150" />
              <mxPoint x="2784" y="2150" />
            </Array>
          </mxGeometry>
        </mxCell>
        <mxCell id="UIaeC_ITgRNFzFBEgnwc-44" style="edgeStyle=orthogonalEdgeStyle;rounded=0;orthogonalLoop=1;jettySize=auto;html=1;entryX=1.013;entryY=0.152;entryDx=0;entryDy=0;entryPerimeter=0;" edge="1" parent="1" source="UIaeC_ITgRNFzFBEgnwc-41" target="l6E0q3iR89TS19-Mh2mZ-9">
          <mxGeometry relative="1" as="geometry">
            <Array as="points">
              <mxPoint x="3540" y="1212" />
            </Array>
          </mxGeometry>
        </mxCell>
        <mxCell id="UIaeC_ITgRNFzFBEgnwc-45" value="Адрес доставки" style="swimlane;childLayout=stackLayout;horizontal=1;startSize=50;horizontalStack=0;rounded=1;fontSize=14;fontStyle=0;strokeWidth=2;resizeParent=0;resizeLast=1;shadow=0;dashed=0;align=center;arcSize=4;whiteSpace=wrap;html=1;" vertex="1" parent="1">
          <mxGeometry x="3610" y="2120" width="220" height="220" as="geometry" />
        </mxCell>
        <mxCell id="UIaeC_ITgRNFzFBEgnwc-46" value="+ Айди пользователя (int)&lt;br&gt;+ Город, улица, дом (string)&lt;br&gt;+ Индекс (string)&lt;br&gt;+ Квартира (string)&lt;br&gt;+ Подъезд (string)&lt;br&gt;+ Этаж (string)&lt;br&gt;+ Домофон (string)&lt;br&gt;+ Комментарий (string)&lt;br&gt;+ Имя фамилия получателя (string)&lt;br&gt;+ Телефон получателя (string)" style="text;html=1;align=left;verticalAlign=middle;resizable=0;points=[];autosize=1;strokeColor=none;fillColor=none;" vertex="1" parent="UIaeC_ITgRNFzFBEgnwc-45">
          <mxGeometry y="50" width="220" height="170" as="geometry" />
        </mxCell>
        <mxCell id="UIaeC_ITgRNFzFBEgnwc-47" style="edgeStyle=orthogonalEdgeStyle;rounded=0;orthogonalLoop=1;jettySize=auto;html=1;" edge="1" parent="1" source="UIaeC_ITgRNFzFBEgnwc-46" target="UIaeC_ITgRNFzFBEgnwc-40">
          <mxGeometry relative="1" as="geometry">
            <Array as="points">
              <mxPoint x="2770" y="2200" />
            </Array>
          </mxGeometry>
        </mxCell>
        <mxCell id="UIaeC_ITgRNFzFBEgnwc-48" value="Корзина" style="swimlane;childLayout=stackLayout;horizontal=1;startSize=50;horizontalStack=0;rounded=1;fontSize=14;fontStyle=0;strokeWidth=2;resizeParent=0;resizeLast=1;shadow=0;dashed=0;align=center;arcSize=4;whiteSpace=wrap;html=1;" vertex="1" parent="1">
          <mxGeometry x="3830" y="1660" width="160" height="120" as="geometry" />
        </mxCell>
        <mxCell id="UIaeC_ITgRNFzFBEgnwc-49" value="+Айди пользователя (int)" style="align=left;strokeColor=none;fillColor=none;spacingLeft=4;fontSize=12;verticalAlign=top;resizable=0;rotatable=0;part=1;html=1;" vertex="1" parent="UIaeC_ITgRNFzFBEgnwc-48">
          <mxGeometry y="50" width="160" height="70" as="geometry" />
        </mxCell>
        <mxCell id="UIaeC_ITgRNFzFBEgnwc-51" value="Продукт корзины" style="swimlane;childLayout=stackLayout;horizontal=1;startSize=50;horizontalStack=0;rounded=1;fontSize=14;fontStyle=0;strokeWidth=2;resizeParent=0;resizeLast=1;shadow=0;dashed=0;align=center;arcSize=4;whiteSpace=wrap;html=1;" vertex="1" parent="1">
          <mxGeometry x="4070" y="1660" width="160" height="120" as="geometry" />
        </mxCell>
        <mxCell id="UIaeC_ITgRNFzFBEgnwc-52" value="+Айди корзины (int)&lt;div&gt;+Айди продукта (int)&lt;/div&gt;&lt;div&gt;+Количество (int)&lt;/div&gt;" style="align=left;strokeColor=none;fillColor=none;spacingLeft=4;fontSize=12;verticalAlign=top;resizable=0;rotatable=0;part=1;html=1;" vertex="1" parent="UIaeC_ITgRNFzFBEgnwc-51">
          <mxGeometry y="50" width="160" height="70" as="geometry" />
        </mxCell>
        <mxCell id="UIaeC_ITgRNFzFBEgnwc-53" style="edgeStyle=orthogonalEdgeStyle;rounded=0;orthogonalLoop=1;jettySize=auto;html=1;entryX=1;entryY=0.5;entryDx=0;entryDy=0;" edge="1" parent="1" source="UIaeC_ITgRNFzFBEgnwc-52" target="UIaeC_ITgRNFzFBEgnwc-49">
          <mxGeometry relative="1" as="geometry" />
        </mxCell>
        <mxCell id="UIaeC_ITgRNFzFBEgnwc-54" style="edgeStyle=orthogonalEdgeStyle;rounded=0;orthogonalLoop=1;jettySize=auto;html=1;entryX=1.013;entryY=0.457;entryDx=0;entryDy=0;entryPerimeter=0;" edge="1" parent="1" source="UIaeC_ITgRNFzFBEgnwc-49" target="UIaeC_ITgRNFzFBEgnwc-40">
          <mxGeometry relative="1" as="geometry">
            <Array as="points">
              <mxPoint x="3910" y="1880" />
              <mxPoint x="3210" y="1880" />
              <mxPoint x="3210" y="2092" />
            </Array>
          </mxGeometry>
        </mxCell>
        <mxCell id="UIaeC_ITgRNFzFBEgnwc-61" style="edgeStyle=orthogonalEdgeStyle;rounded=0;orthogonalLoop=1;jettySize=auto;html=1;entryX=0;entryY=0.25;entryDx=0;entryDy=0;" edge="1" parent="1" source="UIaeC_ITgRNFzFBEgnwc-55" target="UIaeC_ITgRNFzFBEgnwc-58">
          <mxGeometry relative="1" as="geometry" />
        </mxCell>
        <mxCell id="UIaeC_ITgRNFzFBEgnwc-55" value="Заказ" style="swimlane;childLayout=stackLayout;horizontal=1;startSize=50;horizontalStack=0;rounded=1;fontSize=14;fontStyle=0;strokeWidth=2;resizeParent=0;resizeLast=1;shadow=0;dashed=0;align=center;arcSize=4;whiteSpace=wrap;html=1;" vertex="1" parent="1">
          <mxGeometry x="3750" y="1480" width="160" height="140" as="geometry" />
        </mxCell>
        <mxCell id="UIaeC_ITgRNFzFBEgnwc-56" value="+Айди пользователя (int)&lt;br&gt;+Дата и время доставки&lt;br&gt;+Айди доставки (int)&lt;br&gt;+Статус (enum)&lt;br&gt;+Оценгка (int)" style="align=left;strokeColor=none;fillColor=none;spacingLeft=4;fontSize=12;verticalAlign=top;resizable=0;rotatable=0;part=1;html=1;" vertex="1" parent="UIaeC_ITgRNFzFBEgnwc-55">
          <mxGeometry y="50" width="160" height="90" as="geometry" />
        </mxCell>
        <mxCell id="UIaeC_ITgRNFzFBEgnwc-57" value="Доставка" style="swimlane;childLayout=stackLayout;horizontal=1;startSize=50;horizontalStack=0;rounded=1;fontSize=14;fontStyle=0;strokeWidth=2;resizeParent=0;resizeLast=1;shadow=0;dashed=0;align=center;arcSize=4;whiteSpace=wrap;html=1;" vertex="1" parent="1">
          <mxGeometry x="4030" y="1482.5" width="290" height="120" as="geometry" />
        </mxCell>
        <mxCell id="UIaeC_ITgRNFzFBEgnwc-58" value="+Айди заказа (int)&lt;br&gt;+Способ доставки (enum) самовывоз/курьер&lt;br&gt;+Адрес доставки (string)&lt;br&gt;+Оценка(int)" style="align=left;strokeColor=none;fillColor=none;spacingLeft=4;fontSize=12;verticalAlign=top;resizable=0;rotatable=0;part=1;html=1;" vertex="1" parent="UIaeC_ITgRNFzFBEgnwc-57">
          <mxGeometry y="50" width="290" height="70" as="geometry" />
        </mxCell>
        <mxCell id="UIaeC_ITgRNFzFBEgnwc-72" style="edgeStyle=orthogonalEdgeStyle;rounded=0;orthogonalLoop=1;jettySize=auto;html=1;entryX=1;entryY=0.25;entryDx=0;entryDy=0;" edge="1" parent="1" source="UIaeC_ITgRNFzFBEgnwc-63" target="UIaeC_ITgRNFzFBEgnwc-32">
          <mxGeometry relative="1" as="geometry">
            <Array as="points">
              <mxPoint x="3400" y="1253" />
              <mxPoint x="3400" y="2070" />
              <mxPoint x="2850" y="2070" />
            </Array>
          </mxGeometry>
        </mxCell>
        <mxCell id="UIaeC_ITgRNFzFBEgnwc-63" value="Возврат" style="swimlane;childLayout=stackLayout;horizontal=1;startSize=50;horizontalStack=0;rounded=1;fontSize=14;fontStyle=0;strokeWidth=2;resizeParent=0;resizeLast=1;shadow=0;dashed=0;align=center;arcSize=4;whiteSpace=wrap;html=1;" vertex="1" parent="1">
          <mxGeometry x="3660" y="1205" width="160" height="115" as="geometry" />
        </mxCell>
        <mxCell id="UIaeC_ITgRNFzFBEgnwc-64" value="+Айди пользователя (int)&lt;br&gt;+Айди заказа (int)&lt;br&gt;+Статус (enum)" style="align=left;strokeColor=none;fillColor=none;spacingLeft=4;fontSize=12;verticalAlign=top;resizable=0;rotatable=0;part=1;html=1;" vertex="1" parent="UIaeC_ITgRNFzFBEgnwc-63">
          <mxGeometry y="50" width="160" height="65" as="geometry" />
        </mxCell>
        <mxCell id="UIaeC_ITgRNFzFBEgnwc-65" value="Товар возврата" style="swimlane;childLayout=stackLayout;horizontal=1;startSize=50;horizontalStack=0;rounded=1;fontSize=14;fontStyle=0;strokeWidth=2;resizeParent=0;resizeLast=1;shadow=0;dashed=0;align=center;arcSize=4;whiteSpace=wrap;html=1;" vertex="1" parent="1">
          <mxGeometry x="3860" y="1160" width="160" height="150" as="geometry" />
        </mxCell>
        <mxCell id="UIaeC_ITgRNFzFBEgnwc-66" value="+Айди возврата (int)&lt;br style=&quot;border-color: var(--border-color);&quot;&gt;+Айди продукта (int)" style="align=left;strokeColor=none;fillColor=none;spacingLeft=4;fontSize=12;verticalAlign=top;resizable=0;rotatable=0;part=1;html=1;" vertex="1" parent="UIaeC_ITgRNFzFBEgnwc-65">
          <mxGeometry y="50" width="160" height="100" as="geometry" />
        </mxCell>
        <mxCell id="UIaeC_ITgRNFzFBEgnwc-69" style="edgeStyle=orthogonalEdgeStyle;rounded=0;orthogonalLoop=1;jettySize=auto;html=1;entryX=0.5;entryY=0;entryDx=0;entryDy=0;" edge="1" parent="1" source="UIaeC_ITgRNFzFBEgnwc-67" target="UIaeC_ITgRNFzFBEgnwc-55">
          <mxGeometry relative="1" as="geometry" />
        </mxCell>
        <mxCell id="UIaeC_ITgRNFzFBEgnwc-67" value="Продукт заказа" style="swimlane;childLayout=stackLayout;horizontal=1;startSize=50;horizontalStack=0;rounded=1;fontSize=14;fontStyle=0;strokeWidth=2;resizeParent=0;resizeLast=1;shadow=0;dashed=0;align=center;arcSize=4;whiteSpace=wrap;html=1;" vertex="1" parent="1">
          <mxGeometry x="3920" y="1320" width="160" height="150" as="geometry" />
        </mxCell>
        <mxCell id="UIaeC_ITgRNFzFBEgnwc-68" value="+Айди заказа (int)&lt;br&gt;+Айди продукта (int)&lt;br&gt;+Стоимость (float)&lt;br&gt;+Количество (int)&lt;br&gt;+Скидка (float)&lt;br&gt;+Статус (enum)" style="align=left;strokeColor=none;fillColor=none;spacingLeft=4;fontSize=12;verticalAlign=top;resizable=0;rotatable=0;part=1;html=1;" vertex="1" parent="UIaeC_ITgRNFzFBEgnwc-67">
          <mxGeometry y="50" width="160" height="100" as="geometry" />
        </mxCell>
        <mxCell id="UIaeC_ITgRNFzFBEgnwc-73" style="edgeStyle=orthogonalEdgeStyle;rounded=0;orthogonalLoop=1;jettySize=auto;html=1;entryX=0;entryY=0.357;entryDx=0;entryDy=0;entryPerimeter=0;" edge="1" parent="1" source="UIaeC_ITgRNFzFBEgnwc-64" target="UIaeC_ITgRNFzFBEgnwc-55">
          <mxGeometry relative="1" as="geometry" />
        </mxCell>
        <mxCell id="UIaeC_ITgRNFzFBEgnwc-75" style="edgeStyle=orthogonalEdgeStyle;rounded=0;orthogonalLoop=1;jettySize=auto;html=1;exitX=0;exitY=0.25;exitDx=0;exitDy=0;entryX=1;entryY=0.25;entryDx=0;entryDy=0;" edge="1" parent="1" source="UIaeC_ITgRNFzFBEgnwc-66" target="UIaeC_ITgRNFzFBEgnwc-64">
          <mxGeometry relative="1" as="geometry" />
        </mxCell>
        <mxCell id="UIaeC_ITgRNFzFBEgnwc-79" style="edgeStyle=orthogonalEdgeStyle;rounded=0;orthogonalLoop=1;jettySize=auto;html=1;" edge="1" parent="1" source="UIaeC_ITgRNFzFBEgnwc-77" target="UIaeC_ITgRNFzFBEgnwc-63">
          <mxGeometry relative="1" as="geometry">
            <Array as="points">
              <mxPoint x="3990" y="1120" />
              <mxPoint x="3740" y="1120" />
            </Array>
          </mxGeometry>
        </mxCell>
        <mxCell id="UIaeC_ITgRNFzFBEgnwc-77" value="Причина возврата" style="swimlane;childLayout=stackLayout;horizontal=1;startSize=50;horizontalStack=0;rounded=1;fontSize=14;fontStyle=0;strokeWidth=2;resizeParent=0;resizeLast=1;shadow=0;dashed=0;align=center;arcSize=4;whiteSpace=wrap;html=1;" vertex="1" parent="1">
          <mxGeometry x="3910" y="960" width="160" height="120" as="geometry" />
        </mxCell>
        <mxCell id="UIaeC_ITgRNFzFBEgnwc-78" value="+Айди возарата (int)&lt;br&gt;+Причина (string)" style="align=left;strokeColor=none;fillColor=none;spacingLeft=4;fontSize=12;verticalAlign=top;resizable=0;rotatable=0;part=1;html=1;" vertex="1" parent="UIaeC_ITgRNFzFBEgnwc-77">
          <mxGeometry y="50" width="160" height="70" as="geometry" />
        </mxCell>
        <mxCell id="UIaeC_ITgRNFzFBEgnwc-82" style="edgeStyle=orthogonalEdgeStyle;rounded=0;orthogonalLoop=1;jettySize=auto;html=1;" edge="1" parent="1" source="UIaeC_ITgRNFzFBEgnwc-80" target="UIaeC_ITgRNFzFBEgnwc-78">
          <mxGeometry relative="1" as="geometry" />
        </mxCell>
        <mxCell id="UIaeC_ITgRNFzFBEgnwc-80" value="Галерея причины возврата" style="swimlane;childLayout=stackLayout;horizontal=1;startSize=50;horizontalStack=0;rounded=1;fontSize=14;fontStyle=0;strokeWidth=2;resizeParent=0;resizeLast=1;shadow=0;dashed=0;align=center;arcSize=4;whiteSpace=wrap;html=1;" vertex="1" parent="1">
          <mxGeometry x="4180" y="960" width="160" height="120" as="geometry" />
        </mxCell>
        <mxCell id="UIaeC_ITgRNFzFBEgnwc-81" value="+Айди причины (int)&lt;br&gt;+Ссылка на медиа (string)" style="align=left;strokeColor=none;fillColor=none;spacingLeft=4;fontSize=12;verticalAlign=top;resizable=0;rotatable=0;part=1;html=1;" vertex="1" parent="UIaeC_ITgRNFzFBEgnwc-80">
          <mxGeometry y="50" width="160" height="70" as="geometry" />
        </mxCell>
        <mxCell id="UIaeC_ITgRNFzFBEgnwc-85" style="edgeStyle=orthogonalEdgeStyle;rounded=0;orthogonalLoop=1;jettySize=auto;html=1;entryX=0.75;entryY=0;entryDx=0;entryDy=0;" edge="1" parent="1" source="UIaeC_ITgRNFzFBEgnwc-83" target="UIaeC_ITgRNFzFBEgnwc-32">
          <mxGeometry relative="1" as="geometry" />
        </mxCell>
        <mxCell id="UIaeC_ITgRNFzFBEgnwc-83" value="Сравнение" style="swimlane;childLayout=stackLayout;horizontal=1;startSize=50;horizontalStack=0;rounded=1;fontSize=14;fontStyle=0;strokeWidth=2;resizeParent=0;resizeLast=1;shadow=0;dashed=0;align=center;arcSize=4;whiteSpace=wrap;html=1;" vertex="1" parent="1">
          <mxGeometry x="3890" y="1910" width="160" height="120" as="geometry" />
        </mxCell>
        <mxCell id="UIaeC_ITgRNFzFBEgnwc-84" value="+Айди пользователя&lt;br&gt;+Айди товара" style="align=left;strokeColor=none;fillColor=none;spacingLeft=4;fontSize=12;verticalAlign=top;resizable=0;rotatable=0;part=1;html=1;" vertex="1" parent="UIaeC_ITgRNFzFBEgnwc-83">
          <mxGeometry y="50" width="160" height="70" as="geometry" />
        </mxCell>
        <mxCell id="UIaeC_ITgRNFzFBEgnwc-99" value="Пункт самовывоза" style="swimlane;childLayout=stackLayout;horizontal=1;startSize=50;horizontalStack=0;rounded=1;fontSize=14;fontStyle=0;strokeWidth=2;resizeParent=0;resizeLast=1;shadow=0;dashed=0;align=center;arcSize=4;whiteSpace=wrap;html=1;" vertex="1" parent="1">
          <mxGeometry x="4190" y="1890" width="160" height="120" as="geometry" />
        </mxCell>
        <mxCell id="UIaeC_ITgRNFzFBEgnwc-100" value="+Адрес (string)&lt;br&gt;+Часы работы (string)" style="align=left;strokeColor=none;fillColor=none;spacingLeft=4;fontSize=12;verticalAlign=top;resizable=0;rotatable=0;part=1;html=1;" vertex="1" parent="UIaeC_ITgRNFzFBEgnwc-99">
          <mxGeometry y="50" width="160" height="70" as="geometry" />
        </mxCell>
        <mxCell id="UIaeC_ITgRNFzFBEgnwc-101" value="Акция" style="swimlane;childLayout=stackLayout;horizontal=1;startSize=50;horizontalStack=0;rounded=1;fontSize=14;fontStyle=0;strokeWidth=2;resizeParent=0;resizeLast=1;shadow=0;dashed=0;align=center;arcSize=4;whiteSpace=wrap;html=1;" vertex="1" parent="1">
          <mxGeometry x="1820" y="1580" width="160" height="120" as="geometry" />
        </mxCell>
        <mxCell id="UIaeC_ITgRNFzFBEgnwc-102" value="+Название (string)" style="align=left;strokeColor=none;fillColor=none;spacingLeft=4;fontSize=12;verticalAlign=top;resizable=0;rotatable=0;part=1;html=1;" vertex="1" parent="UIaeC_ITgRNFzFBEgnwc-101">
          <mxGeometry y="50" width="160" height="70" as="geometry" />
        </mxCell>
        <mxCell id="UIaeC_ITgRNFzFBEgnwc-103" value="Продукт акции" style="swimlane;childLayout=stackLayout;horizontal=1;startSize=50;horizontalStack=0;rounded=1;fontSize=14;fontStyle=0;strokeWidth=2;resizeParent=0;resizeLast=1;shadow=0;dashed=0;align=center;arcSize=4;whiteSpace=wrap;html=1;" vertex="1" parent="1">
          <mxGeometry x="1850" y="1770" width="160" height="120" as="geometry" />
        </mxCell>
        <mxCell id="UIaeC_ITgRNFzFBEgnwc-104" value="+Айди акции (int)&lt;br&gt;+Айди продукта (int)" style="align=left;strokeColor=none;fillColor=none;spacingLeft=4;fontSize=12;verticalAlign=top;resizable=0;rotatable=0;part=1;html=1;" vertex="1" parent="UIaeC_ITgRNFzFBEgnwc-103">
          <mxGeometry y="50" width="160" height="70" as="geometry" />
        </mxCell>
        <mxCell id="UIaeC_ITgRNFzFBEgnwc-105" style="edgeStyle=orthogonalEdgeStyle;rounded=0;orthogonalLoop=1;jettySize=auto;html=1;entryX=0.512;entryY=1.052;entryDx=0;entryDy=0;entryPerimeter=0;" edge="1" parent="1" source="UIaeC_ITgRNFzFBEgnwc-103" target="UIaeC_ITgRNFzFBEgnwc-102">
          <mxGeometry relative="1" as="geometry" />
        </mxCell>
        <mxCell id="UIaeC_ITgRNFzFBEgnwc-106" value="eeeeeeeeeeeeeeeeeee" style="edgeStyle=orthogonalEdgeStyle;rounded=0;orthogonalLoop=1;jettySize=auto;html=1;" edge="1" parent="1" source="UIaeC_ITgRNFzFBEgnwc-104">
          <mxGeometry relative="1" as="geometry">
            <mxPoint x="2260" y="1200" as="targetPoint" />
            <Array as="points">
              <mxPoint x="2070" y="1855" />
              <mxPoint x="2070" y="1200" />
            </Array>
          </mxGeometry>
        </mxCell>
      </root>
    </mxGraphModel>
  </diagram>
</mxfile>
